<?xml version="1.0" encoding="UTF-8"?>
<svg version="1.1" xmlns="http://www.w3.org/2000/svg" width="500" height="500">
<path d="M0 0 C2.475 0.495 2.475 0.495 5 1 C5.495 2.485 5.495 2.485 6 4 C6.66 4 7.32 4 8 4 C8.30550781 4.57363281 8.61101562 5.14726563 8.92578125 5.73828125 C13.21067274 13.69248828 17.73900938 21.49717155 22.27734375 29.30859375 C25.14931334 34.2519528 27.99016412 39.21224864 30.8203125 44.1796875 C32.55853836 47.23034903 34.30588423 50.27570277 36.0546875 53.3203125 C36.59230713 54.25762207 37.12992676 55.19493164 37.68383789 56.16064453 C38.74687279 58.0139043 39.81110879 59.86647577 40.87670898 61.71826172 C48.06546941 74.26346918 48.06546941 74.26346918 47.75 77.8125 C47 80 47 80 46 81 C43.30237538 81.10578991 40.63021879 81.14677939 37.93188477 81.14526367 C36.66364365 81.15030159 36.66364365 81.15030159 35.36978149 81.15544128 C32.56030835 81.16498082 29.75089461 81.16689589 26.94140625 81.16796875 C24.99706497 81.17117922 23.05272394 81.17454313 21.10838318 81.17805481 C17.02692098 81.18405359 12.94547997 81.18589394 8.86401367 81.18530273 C3.62349492 81.18520106 -1.61688849 81.19885502 -6.85737514 81.21607494 C-10.87470631 81.22717101 -14.89200451 81.22922268 -18.90934944 81.22869301 C-20.84192433 81.22987668 -22.77449997 81.23431997 -24.70705986 81.24202538 C-27.40563421 81.25177725 -30.10391153 81.24896638 -32.80249023 81.24291992 C-33.60724289 81.24853943 -34.41199554 81.25415894 -35.24113464 81.25994873 C-40.77168458 81.22831542 -40.77168458 81.22831542 -43 79 C-43.78204728 73.54960927 -41.70471845 70.13089073 -38.875 65.6875 C-37.94760205 64.17365922 -37.02330809 62.65791401 -36.1015625 61.140625 C-35.60043945 60.31884766 -35.09931641 59.49707031 -34.58300781 58.65039062 C-31.69205512 53.8101404 -28.983656 48.8677007 -26.25 43.9375 C-21.38449565 35.20772034 -16.45738097 26.51701464 -11.4375 17.875 C-10.86612305 16.8862085 -10.29474609 15.89741699 -9.70605469 14.87866211 C-6.69662189 9.72008043 -3.56472476 4.79279567 0 0 Z " fill="#49EEF7" transform="translate(248,104)"/>
<path d="M0 0 C3.0726298 1.0801529 3.64282666 1.99383359 5.17211914 4.82519531 C5.63561768 5.66131348 6.09911621 6.49743164 6.57666016 7.35888672 C7.06062256 8.2707373 7.54458496 9.18258789 8.04321289 10.12207031 C9.1052824 12.05199478 10.16779472 13.98167562 11.23071289 15.91113281 C11.76954102 16.90274414 12.30836914 17.89435547 12.86352539 18.91601562 C15.36008206 23.47946794 17.95192214 27.98696325 20.54321289 32.49707031 C21.53685973 34.23526168 22.53034984 35.97354265 23.52368164 37.71191406 C26.45644437 42.83431795 29.40253092 47.94891641 32.35571289 53.05957031 C33.03802979 54.24667603 33.03802979 54.24667603 33.73413086 55.45776367 C36.1067446 59.57014797 38.57753127 63.57950675 41.16821289 67.55957031 C43.80161061 71.85298951 44.03315819 74.90006262 43.48071289 79.87207031 C40.30493611 81.4599587 36.87847129 81.019325 33.39086914 81.01733398 C32.5549826 81.0206926 31.71909607 81.02405121 30.85787964 81.0275116 C28.08630907 81.03703469 25.31479881 81.03896527 22.54321289 81.04003906 C20.6227211 81.04325027 18.70222955 81.04661424 16.78173828 81.05012512 C12.75333082 81.0561195 8.72494482 81.05796466 4.6965332 81.05737305 C-0.47557629 81.05727131 -5.64754886 81.07093406 -10.81962585 81.08814526 C-14.78634275 81.09924037 -18.75302625 81.10129304 -22.71975708 81.10076332 C-24.62721225 81.1019468 -26.53466819 81.10638901 -28.44210815 81.11409569 C-31.1046521 81.12384719 -33.766895 81.12103703 -36.42944336 81.11499023 C-37.22327423 81.12060974 -38.0171051 81.12622925 -38.83499146 81.13201904 C-44.29097043 81.10038699 -44.29097043 81.10038699 -46.51928711 78.87207031 C-47.1860014 73.6791068 -45.73418316 70.96568702 -42.89428711 66.68457031 C-40.34774589 62.74753497 -37.86413279 58.81807606 -35.64428711 54.68457031 C-28.95187037 42.23523594 -22.06116518 29.93982063 -14.71801758 17.8605957 C-14.24380371 17.07934326 -13.76958984 16.29809082 -13.28100586 15.49316406 C-12.82000488 14.73374512 -12.35900391 13.97432617 -11.8840332 13.19189453 C-10.05532992 10.08342608 -8.36948571 6.90390615 -6.70605469 3.7043457 C-4.88688106 0.89568533 -3.36175902 -0.17071051 0 0 Z " fill="#3FE8F3" transform="translate(251.519287109375,290.1279296875)"/>
<path d="M0 0 C3.84600909 1.42592065 5.08132554 4.23207283 6.95703125 7.66796875 C7.34238037 8.34134277 7.72772949 9.0147168 8.12475586 9.70849609 C9.31307545 11.79103774 10.47938601 13.8848945 11.64453125 15.98046875 C12.99293081 18.35879228 14.35059572 20.73170658 15.70703125 23.10546875 C16.67962891 24.82056641 16.67962891 24.82056641 17.671875 26.5703125 C19.64296697 29.97776455 21.69001875 33.32575417 23.76953125 36.66796875 C26.63562368 41.28587009 29.31373704 45.94945153 31.859375 50.75 C33.34184038 53.43271086 34.87866186 56.05571677 36.4609375 58.6796875 C36.96326904 59.52063965 37.46560059 60.3615918 37.9831543 61.22802734 C38.99095465 62.91052385 40.00903806 64.58691244 41.03833008 66.25634766 C45.63975387 73.98138896 45.63975387 73.98138896 44.64453125 78.98046875 C40.87366302 81.4943809 37.89937357 81.26189529 33.53295898 81.23925781 C32.70667999 81.24276245 31.880401 81.24626709 31.02908325 81.24987793 C28.29534529 81.25868729 25.56186564 81.25284945 22.828125 81.24609375 C20.93148244 81.2474405 19.03484022 81.24938111 17.13819885 81.25189209 C13.16281854 81.25484217 9.18752808 81.25054895 5.2121582 81.24121094 C0.10844249 81.22980872 -4.99506307 81.23638149 -10.0987711 81.24835587 C-14.01488336 81.25557097 -17.93094551 81.25328828 -21.84705925 81.24810028 C-23.72939008 81.24676322 -25.61172541 81.24841347 -27.49405098 81.25305939 C-30.12058761 81.25811975 -32.74678012 81.25042176 -35.37329102 81.23925781 C-36.54765465 81.24533051 -36.54765465 81.24533051 -37.7457428 81.25152588 C-43.12693871 81.20899879 -43.12693871 81.20899879 -45.35546875 78.98046875 C-46.35635337 72.98425997 -43.49702578 69.07293953 -40.48046875 64.16796875 C-39.7376062 62.92370117 -39.7376062 62.92370117 -38.97973633 61.65429688 C-37.95248631 59.9348585 -36.91996261 58.21856038 -35.88232422 56.50537109 C-33.99759794 53.38867151 -32.144717 50.25403078 -30.29833984 47.11450195 C-29.49591814 45.75044748 -28.69054013 44.38812498 -27.88134766 43.02807617 C-25.13944153 38.4004485 -22.54679603 33.70130019 -19.98168945 28.97363281 C-17.05342503 23.58397332 -14.08320289 18.2179137 -11.10546875 12.85546875 C-10.4815625 11.72109375 -9.85765625 10.58671875 -9.21484375 9.41796875 C-8.61671875 8.34289062 -8.01859375 7.2678125 -7.40234375 6.16015625 C-6.86448242 5.18804199 -6.32662109 4.21592773 -5.77246094 3.21435547 C-4.00738347 0.43171267 -3.2819953 -0.02721389 0 0 Z " fill="#45EBF5" transform="translate(306.35546875,197.01953125)"/>
<path d="M0 0 C3.18783057 1.14822334 3.59186492 2.11114221 5.03515625 5.140625 C5.53660156 6.13320313 6.03804688 7.12578125 6.5546875 8.1484375 C6.84682129 8.72883789 7.13895508 9.30923828 7.43994141 9.90722656 C9.57695536 14.01150585 11.91769057 18.00412257 14.22265625 22.015625 C14.74110107 22.92199707 15.2595459 23.82836914 15.79370117 24.76220703 C19.50973329 31.24872773 23.29059816 37.69494082 27.09790039 44.12817383 C29.84626115 48.78600453 32.48298236 53.49044284 35.0234375 58.265625 C37.24584195 62.2911123 39.70083502 66.17689132 42.15234375 70.06640625 C43.66026983 73.29194044 43.87979563 75.37035888 43.47265625 78.890625 C40.93476585 81.4285154 39.32447157 81.13432589 35.8629303 81.16168213 C34.68856667 81.15560944 34.68856667 81.15560944 33.49047852 81.14941406 C32.66595184 81.1529187 31.84142517 81.15642334 30.99191284 81.16003418 C28.25754455 81.16885979 25.52343357 81.16299892 22.7890625 81.15625 C20.89338633 81.15759654 18.9977105 81.15953698 17.10203552 81.16204834 C13.12487507 81.16500083 9.14780434 81.16069842 5.1706543 81.15136719 C0.06812925 81.13998035 -5.03418524 81.14652647 -10.13670254 81.15851212 C-14.05285737 81.16573396 -17.96896216 81.16344115 -21.88511848 81.15825653 C-23.7666228 81.15692053 -25.64813162 81.15856602 -27.52963066 81.16321564 C-30.15846689 81.16828531 -32.78696079 81.16056409 -35.41577148 81.14941406 C-36.19665634 81.15346252 -36.9775412 81.15751099 -37.78208923 81.16168213 C-41.57020531 81.13186283 -43.29614436 81.04475793 -46.52734375 78.890625 C-47.11120281 75.22065376 -46.83351793 73.39698999 -44.90234375 70.203125 C-44.53286621 69.70264648 -44.16338867 69.20216797 -43.78271484 68.68652344 C-42.27500789 66.52964044 -41.06033784 64.28806109 -39.81640625 61.96875 C-36.44221922 55.72367071 -32.99349695 49.52254945 -29.52734375 43.328125 C-28.93695313 42.26916016 -28.3465625 41.21019531 -27.73828125 40.11914062 C-24.11288633 33.63894684 -20.38744063 27.23368325 -16.52734375 20.890625 C-15.95886719 19.95089844 -15.39039063 19.01117188 -14.8046875 18.04296875 C-14.36253906 17.31207031 -13.92039062 16.58117187 -13.46484375 15.828125 C-11.06815382 11.85664666 -8.84186955 7.81892208 -6.703125 3.703125 C-4.88628116 0.90240891 -3.3480929 -0.14489428 0 0 Z " fill="#3EE8F3" transform="translate(361.52734375,290.109375)"/>
<path d="M0 0 C1.71148244 2.42119274 3.18167796 4.74098124 4.625 7.3125 C5.21667969 8.32860352 5.21667969 8.32860352 5.8203125 9.36523438 C6.90099633 11.23269985 7.95627492 13.11168869 9 15 C9.63035156 16.13501953 9.63035156 16.13501953 10.2734375 17.29296875 C11 19 11 19 11 22 C11.66 22 12.32 22 13 22 C14.3125 24.40625 14.3125 24.40625 15.625 26.8125 C16.181875 27.83214844 16.73875 28.85179687 17.3125 29.90234375 C18.31700053 31.74625329 19.31823603 33.59195691 20.3125 35.44140625 C23.85916926 42.01752218 27.547165 48.51098201 31.25 55 C31.78189941 55.93312012 32.31379883 56.86624023 32.86181641 57.82763672 C33.36632324 58.7095166 33.87083008 59.59139648 34.390625 60.5 C34.84469727 61.2940625 35.29876953 62.088125 35.76660156 62.90625 C36.7873707 64.63905209 37.88443561 66.32665341 39 68 C39 68.99 39 69.98 39 71 C39.66 71 40.32 71 41 71 C41 73.64 41 76.28 41 79 C37.85110537 80.57444731 34.47571217 80.15619554 31.01782227 80.16113281 C29.78103226 80.16858017 29.78103226 80.16858017 28.51925659 80.17617798 C25.78496474 80.19081285 23.05073087 80.19760325 20.31640625 80.203125 C18.42073057 80.20887468 16.52505491 80.21463243 14.62937927 80.22039795 C10.65224943 80.23091124 6.67513983 80.23675198 2.69799805 80.24023438 C-2.4045708 80.24572451 -7.50687352 80.2697622 -12.60935879 80.29820633 C-16.52550546 80.31680439 -20.44158762 80.32203676 -24.35777473 80.32357025 C-26.23929362 80.32660295 -28.12081121 80.33465213 -30.00228691 80.34775543 C-32.63120835 80.36475945 -35.25947403 80.36294985 -37.88842773 80.35644531 C-38.66931259 80.3656601 -39.45019745 80.37487488 -40.25474548 80.3843689 C-45.49714939 80.34361757 -45.49714939 80.34361757 -48.01405334 78.62371826 C-49 77 -49 77 -48.88671875 74.6640625 C-47.86770539 71.60253337 -46.49419175 69.12955911 -44.8125 66.375 C-42.53383244 62.57414561 -40.29359065 58.7742764 -38.1875 54.875 C-31.59083652 42.69385951 -24.83346405 30.61107479 -17.84082031 18.65258789 C-14.82973764 13.49019149 -11.97977559 8.28537978 -9.31640625 2.93359375 C-6.77107458 -0.80509817 -4.16434431 -1.53883207 0 0 Z " fill="#3CE4F0" transform="translate(144,291)"/>
<path d="M0 0 C5.06112741 1.72319338 6.37192233 5.42488038 8.78125 9.9921875 C9.26190918 10.86262695 9.74256836 11.73306641 10.23779297 12.62988281 C11.60563232 15.11543173 12.94711471 17.61342843 14.28125 20.1171875 C15.32220517 22.03424068 16.36370375 23.95099913 17.40625 25.8671875 C17.84710938 26.68832031 18.28796875 27.50945312 18.7421875 28.35546875 C21.1252539 32.63168181 23.66590564 36.81206561 26.21142578 40.99316406 C31.28125 49.34163717 31.28125 49.34163717 31.28125 53.1171875 C31.94125 53.1171875 32.60125 53.1171875 33.28125 53.1171875 C35.13921915 56.29091865 36.96292702 59.48310251 38.78125 62.6796875 C39.30589844 63.57494141 39.83054687 64.47019531 40.37109375 65.39257812 C43.29936309 70.58360105 45.00384032 74.13118356 44.28125 80.1171875 C41.13235537 81.69163481 37.75696217 81.27338304 34.29907227 81.27832031 C33.06228226 81.28576767 33.06228226 81.28576767 31.80050659 81.29336548 C29.06621474 81.30800035 26.33198087 81.31479075 23.59765625 81.3203125 C21.70198057 81.32606218 19.80630491 81.33181993 17.91062927 81.33758545 C13.93349943 81.34809874 9.95638983 81.35393948 5.97924805 81.35742188 C0.8766792 81.36291201 -4.22562352 81.3869497 -9.32810879 81.41539383 C-13.24425546 81.43399189 -17.16033762 81.43922426 -21.07652473 81.44075775 C-22.95804362 81.44379045 -24.83956121 81.45183963 -26.72103691 81.46494293 C-29.34995835 81.48194695 -31.97822403 81.48013735 -34.60717773 81.47363281 C-35.38806259 81.4828476 -36.16894745 81.49206238 -36.97349548 81.5015564 C-42.21366228 81.46082246 -42.21366228 81.46082246 -44.73571777 79.74494934 C-45.71875 78.1171875 -45.71875 78.1171875 -45.55883789 75.71655273 C-44.70575348 73.07697419 -43.67536463 70.92060014 -42.27734375 68.52734375 C-41.77992676 67.66737793 -41.28250977 66.80741211 -40.77001953 65.92138672 C-40.23747559 65.01662598 -39.70493164 64.11186523 -39.15625 63.1796875 C-38.34196533 61.77614014 -38.34196533 61.77614014 -37.51123047 60.34423828 C-36.42113724 58.46540203 -35.32840384 56.58809488 -34.23291016 54.71240234 C-32.25138364 51.31613874 -30.29348088 47.90677493 -28.34375 44.4921875 C-27.71726563 43.39648438 -27.09078125 42.30078125 -26.4453125 41.171875 C-24.34548159 37.45678954 -22.31032924 33.70896382 -20.27734375 29.95703125 C-17.17163644 24.29826128 -13.94388879 18.70846176 -10.71875 13.1171875 C-10.38101563 12.53098633 -10.04328125 11.94478516 -9.6953125 11.34082031 C-3.23366681 0.13938219 -3.23366681 0.13938219 0 0 Z " fill="#41E6F1" transform="translate(194.71875,196.8828125)"/>
<path d="M0 0 C3.84600909 1.42592065 5.08132554 4.23207283 6.95703125 7.66796875 C7.53505493 8.67802979 7.53505493 8.67802979 8.12475586 9.70849609 C9.31307545 11.79103774 10.47938601 13.8848945 11.64453125 15.98046875 C12.99293081 18.35879228 14.35059572 20.73170658 15.70703125 23.10546875 C16.34640625 24.23726562 16.98578125 25.3690625 17.64453125 26.53515625 C19.04600919 28.94942098 20.46714975 31.31804377 21.95703125 33.67578125 C22.33335693 34.27245605 22.70968262 34.86913086 23.09741211 35.48388672 C24.14863333 37.13854823 25.21072504 38.78628898 26.2734375 40.43359375 C26.72589844 41.2740625 27.17835938 42.11453125 27.64453125 42.98046875 C27.14953125 43.97046875 27.14953125 43.97046875 26.64453125 44.98046875 C25.98453125 44.98046875 25.32453125 44.98046875 24.64453125 44.98046875 C24.48984375 44.02140625 24.48984375 44.02140625 24.33203125 43.04296875 C24.10515625 42.36234375 23.87828125 41.68171875 23.64453125 40.98046875 C22.65453125 40.65046875 21.66453125 40.32046875 20.64453125 39.98046875 C19.94071968 37.99323607 19.27335015 35.99268922 18.64453125 33.98046875 C17.65453125 33.48546875 17.65453125 33.48546875 16.64453125 32.98046875 C16.64453125 32.32046875 16.64453125 31.66046875 16.64453125 30.98046875 C15.65453125 30.65046875 14.66453125 30.32046875 13.64453125 29.98046875 C13.31453125 28.99046875 12.98453125 28.00046875 12.64453125 26.98046875 C11.65453125 26.98046875 10.66453125 26.98046875 9.64453125 26.98046875 C9.31453125 26.32046875 8.98453125 25.66046875 8.64453125 24.98046875 C7.98453125 24.65046875 7.32453125 24.32046875 6.64453125 23.98046875 C6.97453125 22.99046875 7.30453125 22.00046875 7.64453125 20.98046875 C7.68328046 19.31425259 7.68955985 17.64652703 7.64453125 15.98046875 C6.98453125 15.98046875 6.32453125 15.98046875 5.64453125 15.98046875 C5.64453125 14.33046875 5.64453125 12.68046875 5.64453125 10.98046875 C4.98453125 10.98046875 4.32453125 10.98046875 3.64453125 10.98046875 C2.01953125 8.98046875 2.01953125 8.98046875 0.64453125 6.98046875 C0.41765625 7.76421875 0.19078125 8.54796875 -0.04296875 9.35546875 C-1.35546875 11.98046875 -1.35546875 11.98046875 -3.98046875 13.29296875 C-4.76421875 13.51984375 -5.54796875 13.74671875 -6.35546875 13.98046875 C-6.02546875 15.30046875 -5.69546875 16.62046875 -5.35546875 17.98046875 C-6.26296875 18.53734375 -7.17046875 19.09421875 -8.10546875 19.66796875 C-11.20000266 21.86984865 -13.14828343 23.924366 -15.35546875 26.98046875 C-15.35546875 26.32046875 -15.35546875 25.66046875 -15.35546875 24.98046875 C-16.01546875 24.65046875 -16.67546875 24.32046875 -17.35546875 23.98046875 C-15.23926178 20.16302351 -13.11105565 16.35240419 -10.98046875 12.54296875 C-10.3771875 11.45435547 -9.77390625 10.36574219 -9.15234375 9.24414062 C-8.57226562 8.20966797 -7.9921875 7.17519531 -7.39453125 6.109375 C-6.86037598 5.1510376 -6.3262207 4.1927002 -5.77587891 3.20532227 C-4.00570268 0.43261412 -3.27689942 -0.02717164 0 0 Z " fill="#89F3F4" transform="translate(306.35546875,197.01953125)"/>
<path d="M0 0 C0.66 0.99 1.32 1.98 2 3 C1.34 3.66 0.68 4.32 0 5 C-0.68020388 7.39291725 -0.68020388 7.39291725 -1.125 10.0625 C-1.29257812 10.96097656 -1.46015625 11.85945313 -1.6328125 12.78515625 C-2.02725875 14.79024336 -2.02725875 14.79024336 -2 16 C2.78393656 16.86110858 6.96246535 16.98161916 11.80078125 16.50390625 C21.48702974 15.75895578 31.1459072 16.05934247 40.84985352 16.296875 C44.0592852 16.37492182 47.26880922 16.44214326 50.47851562 16.5078125 C60.68059942 16.73002848 70.83898712 17.00136857 81 18 C81 15.69 81 13.38 81 11 C81.99 11.495 81.99 11.495 83 12 C83.125 14.875 83.125 14.875 83 18 C80.4621096 20.5378904 78.85181532 20.24370089 75.39027405 20.27105713 C74.21591042 20.26498444 74.21591042 20.26498444 73.01782227 20.25878906 C72.19329559 20.2622937 71.36876892 20.26579834 70.51925659 20.26940918 C67.7848883 20.27823479 65.05077732 20.27237392 62.31640625 20.265625 C60.42073008 20.26697154 58.52505425 20.26891198 56.62937927 20.27142334 C52.65221882 20.27437583 48.67514809 20.27007342 44.69799805 20.26074219 C39.595473 20.24935535 34.49315851 20.25590147 29.39064121 20.26788712 C25.47448638 20.27510896 21.55838159 20.27281615 17.64222527 20.26763153 C15.76072095 20.26629553 13.87921213 20.26794102 11.99771309 20.27259064 C9.36887686 20.27766031 6.74038296 20.26993909 4.11157227 20.25878906 C3.33068741 20.26283752 2.54980255 20.26688599 1.74525452 20.27105713 C-2.04286156 20.24123783 -3.76880061 20.15413293 -7 18 C-7.61675532 14.12325226 -7.22901842 12.37906497 -5.1875 9 C-4.465625 8.01 -3.74375 7.02 -3 6 C-1.97069953 4.01492052 -0.96136071 2.01885749 0 0 Z " fill="#1EB4BF" transform="translate(322,351)"/>
<path d="M0 0 C0.495 0.99 0.495 0.99 1 2 C1.99 2 2.98 2 4 2 C4.33 1.34 4.66 0.68 5 0 C6 1 6 1 6.09765625 2.84765625 C6.06510417 4.8984375 6.03255208 6.94921875 6 9 C2.82422322 10.58788839 -0.6022416 10.14725469 -4.08984375 10.14526367 C-4.92573029 10.14862228 -5.76161682 10.1519809 -6.62283325 10.15544128 C-9.39440382 10.16496438 -12.16591408 10.16689496 -14.9375 10.16796875 C-16.85799179 10.17117996 -18.77848334 10.17454393 -20.69897461 10.17805481 C-24.72738208 10.18404918 -28.75576807 10.18589435 -32.78417969 10.18530273 C-37.95628918 10.185201 -43.12826175 10.19886375 -48.30033875 10.21607494 C-52.26705564 10.22717006 -56.23373914 10.22922273 -60.20046997 10.22869301 C-62.10792514 10.22987649 -64.01538108 10.2343187 -65.92282104 10.24202538 C-68.58536499 10.25177688 -71.24760789 10.24896672 -73.91015625 10.24291992 C-74.70398712 10.24853943 -75.49781799 10.25415894 -76.31570435 10.25994873 C-81.77168333 10.22831667 -81.77168333 10.22831667 -84 8 C-83.625 5.375 -83.625 5.375 -83 3 C-82.67 3.99 -82.34 4.98 -82 6 C-81.34 6 -80.68 6 -80 6 C-80 6.66 -80 7.32 -80 8 C-73.77585542 6.61189751 -73.77585542 6.61189751 -68 4 C-68 4.99 -68 5.98 -68 7 C-64.83335334 7.02940458 -61.66674253 7.04693315 -58.5 7.0625 C-57.1696875 7.07506836 -57.1696875 7.07506836 -55.8125 7.08789062 C-51.76124665 7.10278494 -47.85286177 7.0445714 -43.84375 6.43359375 C-40.45801789 6.05166665 -37.77220817 6.22194132 -34.43261719 6.72900391 C-28.6976358 7.36788682 -22.88829301 7.18465814 -17.125 7.1875 C-15.78124808 7.19965992 -14.43749804 7.21202808 -13.09375 7.22460938 C-11.82789063 7.22654297 -10.56203125 7.22847656 -9.2578125 7.23046875 C-8.1042627 7.23457764 -6.95071289 7.23868652 -5.76220703 7.24291992 C-2.85719358 7.28548777 -2.85719358 7.28548777 -1 5 C-0.35232207 2.42938689 -0.35232207 2.42938689 0 0 Z " fill="#24B6C0" transform="translate(289,361)"/>
<path d="M0 0 C5.0609787 1.72314275 6.37216507 5.42474858 8.78125 9.9921875 C9.25755859 10.85537598 9.73386719 11.71856445 10.22460938 12.60791016 C11.59589862 15.10120584 12.94068296 17.6072785 14.28125 20.1171875 C14.92501685 21.2954023 15.57053211 22.47266565 16.21875 23.6484375 C17.17604448 25.39071345 18.12580938 27.13718584 19.0625 28.890625 C19.97557799 30.55874825 20.96905391 32.18328356 22 33.78125 C22.63421875 34.93753906 22.63421875 34.93753906 23.28125 36.1171875 C22.78625 37.1071875 22.78625 37.1071875 22.28125 38.1171875 C20.61458333 36.45052083 18.94791667 34.78385417 17.28125 33.1171875 C16.53875 32.4571875 15.79625 31.7971875 15.03125 31.1171875 C12.99203699 28.78665834 12.61902931 27.15720129 12.28125 24.1171875 C10.63125 24.4471875 8.98125 24.7771875 7.28125 25.1171875 C7.61125 23.1371875 7.94125 21.1571875 8.28125 19.1171875 C7.29125 18.7871875 6.30125 18.4571875 5.28125 18.1171875 C4.95125 15.8071875 4.62125 13.4971875 4.28125 11.1171875 C2.63125 11.1171875 0.98125 11.1171875 -0.71875 11.1171875 C-0.71875 9.7971875 -0.71875 8.4771875 -0.71875 7.1171875 C-4.52332797 11.2586324 -4.52332797 11.2586324 -6.65625 16.3671875 C-7.006875 17.2746875 -7.3575 18.1821875 -7.71875 19.1171875 C-10.84375 20.4921875 -10.84375 20.4921875 -13.71875 21.1171875 C-12.28656426 16.23575861 -10.21394668 12.1559747 -7.65625 7.8046875 C-7.29208984 7.17240234 -6.92792969 6.54011719 -6.55273438 5.88867188 C-3.21863332 0.13873419 -3.21863332 0.13873419 0 0 Z " fill="#7FF4F6" transform="translate(194.71875,196.8828125)"/>
<path d="M0 0 C3.0726298 1.0801529 3.64282666 1.99383359 5.17211914 4.82519531 C5.63626221 5.66244141 6.10040527 6.4996875 6.57861328 7.36230469 C7.30359009 8.72838867 7.30359009 8.72838867 8.04321289 10.12207031 C9.09482343 12.0337888 10.14692154 13.94523915 11.19946289 15.85644531 C11.73700195 16.84580078 12.27454102 17.83515625 12.82836914 18.85449219 C15.49928884 23.73223561 18.27397715 28.54969956 21.04321289 33.37207031 C22.46268968 35.86032693 23.88211 38.34861574 25.30151367 40.83691406 C26.27814155 42.52245651 27.29437247 44.18498173 28.32055664 45.84082031 C29.48071289 47.87207031 29.48071289 47.87207031 29.48071289 49.87207031 C28.16071289 49.54207031 26.84071289 49.21207031 25.48071289 48.87207031 C25.48071289 48.21207031 25.48071289 47.55207031 25.48071289 46.87207031 C24.82071289 46.87207031 24.16071289 46.87207031 23.48071289 46.87207031 C23.23836914 46.17339844 22.99602539 45.47472656 22.74633789 44.75488281 C22.41118164 43.84480469 22.07602539 42.93472656 21.73071289 41.99707031 C21.40586914 41.09214844 21.08102539 40.18722656 20.74633789 39.25488281 C19.26496256 36.46587369 18.21306634 36.22433485 15.48071289 34.87207031 C14.82836914 32.88378906 14.82836914 32.88378906 14.54321289 30.55957031 C13.71896481 25.9259595 12.0563693 24.00076967 8.48071289 20.87207031 C6.79834758 18.14824076 6.48071289 17.1332266 6.48071289 13.87207031 C5.49071289 13.87207031 4.50071289 13.87207031 3.48071289 13.87207031 C2.82071289 11.23207031 2.16071289 8.59207031 1.48071289 5.87207031 C-0.16928711 6.20207031 -1.81928711 6.53207031 -3.51928711 6.87207031 C-4.67740099 9.81936568 -4.67740099 9.81936568 -4.51928711 12.87207031 C-6.82928711 14.19207031 -9.13928711 15.51207031 -11.51928711 16.87207031 C-12.51928711 13.87207031 -12.51928711 13.87207031 -11.19116211 11.02441406 C-10.55694336 9.96351563 -9.92272461 8.90261719 -9.26928711 7.80957031 C-8.64538086 6.74609375 -8.02147461 5.68261719 -7.37866211 4.58691406 C-5.23763083 1.46082847 -3.93547465 -0.19984385 0 0 Z " fill="#78D8DD" transform="translate(251.519287109375,290.1279296875)"/>
<path d="M0 0 C2.33984375 0.234375 2.33984375 0.234375 5 1 C6.37890625 2.765625 6.37890625 2.765625 7.5625 5.25 C8.31466797 6.73886719 8.31466797 6.73886719 9.08203125 8.2578125 C9.37416504 8.83821289 9.66629883 9.41861328 9.96728516 10.01660156 C12.10429911 14.12088085 14.44503432 18.11349757 16.75 22.125 C17.26844482 23.03137207 17.78688965 23.93774414 18.32104492 24.87158203 C22.03413877 31.35297383 25.81144897 37.79443887 29.61645508 44.22216797 C32.43245943 48.99374692 35.1380427 53.81400243 37.74609375 58.703125 C38.67121898 60.39774691 39.6764586 62.0492011 40.72265625 63.671875 C41.35494141 64.82429688 41.35494141 64.82429688 42 66 C41.67 66.66 41.34 67.32 41 68 C39.125 67.875 39.125 67.875 37 67 C35.40155515 63.40349908 35 60.96602757 35 57 C34.38125 56.79375 33.7625 56.5875 33.125 56.375 C30.15346355 54.45224112 29.86975341 52.33405473 29 49 C28.34 49 27.68 49 27 49 C26.34 47.02 25.68 45.04 25 43 C23.02 43.495 23.02 43.495 21 44 C20.80664062 43.40832031 20.61328125 42.81664062 20.4140625 42.20703125 C18.44864359 36.00955782 18.44864359 36.00955782 16 30 C15.34 29.67 14.68 29.34 14 29 C13.40644386 26.35139573 13.25790731 23.70802678 13 21 C12.01 20.67 11.02 20.34 10 20 C8.37676246 16.24092359 7.76005071 13.07913787 8 9 C7.01 8.67 6.02 8.34 5 8 C4.67 6.02 4.34 4.04 4 2 C2.68 1.67 1.36 1.34 0 1 C0 0.67 0 0.34 0 0 Z " fill="#83DCE0" transform="translate(359,290)"/>
<path d="M0 0 C3 1 3 1 4.6875 3.1875 C6.20081887 6.43032614 6.4716381 8.46271425 6 12 C2.22913177 14.51391215 -0.74515768 14.28142654 -5.11157227 14.25878906 C-5.93785126 14.2622937 -6.76413025 14.26579834 -7.615448 14.26940918 C-10.34918596 14.27821854 -13.08266561 14.2723807 -15.81640625 14.265625 C-17.71304881 14.26697175 -19.60969103 14.26891236 -21.5063324 14.27142334 C-25.48171271 14.27437342 -29.45700317 14.2700802 -33.43237305 14.26074219 C-38.53608876 14.24933997 -43.63959432 14.25591274 -48.74330235 14.26788712 C-52.65941461 14.27510222 -56.57547676 14.27281953 -60.4915905 14.26763153 C-62.37392133 14.26629447 -64.25625666 14.26794472 -66.13858223 14.27259064 C-68.76511886 14.277651 -71.39131137 14.26995301 -74.01782227 14.25878906 C-75.1921859 14.26486176 -75.1921859 14.26486176 -76.39027405 14.27105713 C-81.77146996 14.22853004 -81.77146996 14.22853004 -84 12 C-84.52981019 8.02642355 -84.31881474 6.45829619 -82 3.125 C-81.34 2.42375 -80.68 1.7225 -80 1 C-80 3.97 -80 6.94 -80 10 C-76.93200879 11.53399561 -73.70597732 11.17947954 -70.33740234 11.20532227 C-69.15190544 11.22017166 -69.15190544 11.22017166 -67.94245911 11.23532104 C-65.3236493 11.26697122 -62.70482134 11.29170733 -60.0859375 11.31640625 C-58.27275108 11.33697274 -56.45956948 11.35796913 -54.64639282 11.37937927 C-49.86901758 11.43463142 -45.09159885 11.48402682 -40.31414795 11.53222656 C-35.44116332 11.58241866 -30.56824202 11.63811667 -25.6953125 11.69335938 C-16.1302624 11.80097938 -6.56515738 11.90241581 3 12 C3 10.35 3 8.7 3 7 C2.34 7 1.68 7 1 7 C0.505 3.535 0.505 3.535 0 0 Z " fill="#1FA0A9" transform="translate(345,264)"/>
<path d="M0 0 C1.71148244 2.42119274 3.18167796 4.74098124 4.625 7.3125 C5.01945313 7.98990234 5.41390625 8.66730469 5.8203125 9.36523438 C6.90099633 11.23269985 7.95627492 13.11168869 9 15 C9.63035156 16.13501953 9.63035156 16.13501953 10.2734375 17.29296875 C11 19 11 19 11 22 C11.66 22 12.32 22 13 22 C16.29504282 27.89695365 19.48928149 33.72320373 22 40 C20.515 40.495 20.515 40.495 19 41 C19 40.01 19 39.02 19 38 C18.4225 37.731875 17.845 37.46375 17.25 37.1875 C13.27040199 35.08715661 10.63974795 33.28857156 9 29 C8.63557767 27.33985384 8.30027117 25.67293936 8 24 C7.67 23.01 7.34 22.02 7 21 C6.175 20.5875 5.35 20.175 4.5 19.75 C2 18 2 18 1.375 14.5625 C1.189375 12.7990625 1.189375 12.7990625 1 11 C0.03886134 9.63838689 -0.95884159 8.30144802 -2 7 C-2.6875 4.25 -2.6875 4.25 -3 2 C-5.31 3.32 -7.62 4.64 -10 6 C-8.54794521 1.40182648 -8.54794521 1.40182648 -6.125 -0.375 C-3.57687195 -1.12444943 -2.47354411 -0.91233343 0 0 Z " fill="#7FF4F8" transform="translate(144,291)"/>
<path d="M0 0 C1 2 1 2 0 11 C28.38 11 56.76 11 86 11 C85.505 7.04 85.505 7.04 85 3 C85.99 3.495 85.99 3.495 87 4 C87.75 6.875 87.75 6.875 88 10 C87.34 10.99 86.68 11.98 86 13 C83.19994688 13.29684659 80.62070204 13.39898385 77.81835938 13.37231445 C76.97271927 13.37596512 76.12707916 13.37961578 75.2558136 13.38337708 C72.45159013 13.39150429 69.64794059 13.3778546 66.84375 13.36328125 C64.90083822 13.3627629 62.95792591 13.36327962 61.01501465 13.36479187 C56.93945505 13.36470205 52.86409287 13.35425257 48.78857422 13.33618164 C43.5559027 13.31349415 38.32351984 13.31294932 33.09081268 13.31969929 C29.07775289 13.32303559 25.06475929 13.31641557 21.05171204 13.30657005 C19.1219365 13.30271192 17.19215362 13.30157237 15.26237488 13.3031559 C12.56865323 13.30352542 9.87530618 13.29093834 7.18164062 13.2746582 C6.37845901 13.27713562 5.5752774 13.27961304 4.74775696 13.28216553 C-0.77125937 13.22874063 -0.77125937 13.22874063 -3 11 C-3.51735644 6.34379204 -2.68362626 3.80180386 0 0 Z " fill="#1E969E" transform="translate(208,172)"/>
<path d="M0 0 C0.33 0.66 0.66 1.32 1 2 C1.66 2 2.32 2 3 2 C3.30550781 2.57363281 3.61101562 3.14726563 3.92578125 3.73828125 C8.28818671 11.83638039 12.89154209 19.78915709 17.51171875 27.7421875 C17.94145996 28.48436523 18.37120117 29.22654297 18.81396484 29.99121094 C19.80263336 31.66571991 20.84253882 33.30984386 21.89453125 34.9453125 C22.25933594 35.62335938 22.62414062 36.30140625 23 37 C22.67 37.66 22.34 38.32 22 39 C20.35 38.01 18.7 37.02 17 36 C16.34 36.66 15.68 37.32 15 38 C15 35.33333333 15 32.66666667 15 30 C14.01 29.67 13.02 29.34 12 29 C11.7525 28.030625 11.505 27.06125 11.25 26.0625 C10.63125 24.5465625 10.63125 24.5465625 10 23 C6.47548841 21.53977565 6.47548841 21.53977565 3 21 C4.32 20.34 5.64 19.68 7 19 C7 18.34 7 17.68 7 17 C6.01 16.67 5.02 16.34 4 16 C3.92652344 15.04287109 3.92652344 15.04287109 3.8515625 14.06640625 C3.77679688 13.24011719 3.70203125 12.41382812 3.625 11.5625 C3.55539062 10.73878906 3.48578125 9.91507813 3.4140625 9.06640625 C3.20910156 8.04353516 3.20910156 8.04353516 3 7 C2.34 6.67 1.68 6.34 1 6 C0.375 2.9375 0.375 2.9375 0 0 Z " fill="#7EF5F5" transform="translate(253,106)"/>
<path d="M0 0 C0.66 0 1.32 0 2 0 C2 1.32 2 2.64 2 4 C2.66 4 3.32 4 4 4 C4 4.66 4 5.32 4 6 C7.72915017 6.02912348 11.4582709 6.04684037 15.1875 6.0625 C16.24259766 6.07087891 17.29769531 6.07925781 18.38476562 6.08789062 C19.40634766 6.09111328 20.42792969 6.09433594 21.48046875 6.09765625 C22.41785889 6.10289307 23.35524902 6.10812988 24.32104492 6.11352539 C26.97698756 6.08526678 26.97698756 6.08526678 29.4074707 5.43139648 C32.7814729 4.86996303 35.62362192 5.48513298 39 6 C41.74387053 6.05689858 44.45786174 6.0710713 47.19921875 6.02734375 C48.75325308 6.01470932 50.30728964 6.00234751 51.86132812 5.99023438 C54.28400832 5.96534973 56.70656916 5.93723878 59.12915039 5.90405273 C61.48584756 5.87385391 63.84238996 5.85608972 66.19921875 5.83984375 C66.9221965 5.82638412 67.64517426 5.8129245 68.39006042 5.79905701 C72.20480043 5.78004183 74.68582629 6.16036008 78 8 C68.01227883 8.0463024 58.02458311 8.08185853 48.03677654 8.10362434 C43.39923504 8.11406985 38.76176687 8.12824303 34.12426758 8.15087891 C29.65038645 8.17257995 25.17657594 8.18456285 20.70264626 8.18975449 C18.99417827 8.19345517 17.28571422 8.20068152 15.57727623 8.21146011 C13.18774379 8.22593871 10.79850466 8.22797948 8.40893555 8.22705078 C7.34510399 8.23783661 7.34510399 8.23783661 6.25978088 8.24884033 C2.60393109 8.23342481 1.13277433 8.08851622 -2 6 C-1.125 1.125 -1.125 1.125 0 0 Z " fill="#26E3F0" transform="translate(266,268)"/>
<path d="M0 0 C0.99 0.66 1.98 1.32 3 2 C2.67 2.94875 2.34 3.8975 2 4.875 C0.89840809 7.77062452 0.89840809 7.77062452 1 10 C0.236875 10.474375 -0.52625 10.94875 -1.3125 11.4375 C-4.33728798 14.32160017 -4.56107781 15.53498153 -5.4375 19.5 C-6.63585655 24.71596811 -6.63585655 24.71596811 -10.125 27.4375 C-11.07375 27.953125 -12.0225 28.46875 -13 29 C-13.95231597 31.12119128 -13.95231597 31.12119128 -14 33 C-15.98 33.495 -15.98 33.495 -18 34 C-18.33 35.32 -18.66 36.64 -19 38 C-20 35 -20 35 -18.92358398 32.52319336 C-18.09322632 31.0711853 -18.09322632 31.0711853 -17.24609375 29.58984375 C-16.63830078 28.51669922 -16.03050781 27.44355469 -15.40429688 26.33789062 C-14.75525391 25.21576172 -14.10621094 24.09363281 -13.4375 22.9375 C-12.81552734 21.84244141 -12.19355469 20.74738281 -11.55273438 19.61914062 C-7.79355528 13.02388283 -3.93708486 6.49047416 0 0 Z " fill="#61DCE1" transform="translate(235,125)"/>
<path d="M0 0 C3.7961351 1.26537837 4.15494755 2.55055411 6 6 C6.309375 6.721875 6.61875 7.44375 6.9375 8.1875 C7.84296425 10.15767206 7.84296425 10.15767206 9.85546875 10.73828125 C12.93476747 12.54996337 13.78353407 14.83201148 15.375 18 C18.03920306 23.19577264 20.87905761 28.16098011 24.03125 33.07421875 C24.3509375 33.70972656 24.670625 34.34523438 25 35 C24.67 35.66 24.34 36.32 24 37 C22.125 36.875 22.125 36.875 20 36 C18.40155515 32.40349908 18 29.96602757 18 26 C17.38125 25.79375 16.7625 25.5875 16.125 25.375 C13.15346355 23.45224112 12.86975341 21.33405473 12 18 C11.34 18 10.68 18 10 18 C9.34 16.02 8.68 14.04 8 12 C6.68 12.33 5.36 12.66 4 13 C3.51891725 11.58398286 3.04021859 10.16715563 2.5625 8.75 C2.29566406 7.96109375 2.02882813 7.1721875 1.75390625 6.359375 C1.08045292 4.25178012 0.50849405 2.15246027 0 0 Z " fill="#68E0E6" transform="translate(376,321)"/>
<path d="M0 0 C0.598125 0.639375 1.19625 1.27875 1.8125 1.9375 C3.90810337 4.20310389 3.90810337 4.20310389 7 5 C8.45800781 6.91772461 8.45800781 6.91772461 9.953125 9.40234375 C10.489375 10.29244141 11.025625 11.18253906 11.578125 12.09960938 C12.12984375 13.03611328 12.6815625 13.97261719 13.25 14.9375 C14.10078125 16.33645508 14.10078125 16.33645508 14.96875 17.76367188 C18.05639576 22.94597053 18.05639576 22.94597053 19 25 C18.67 25.66 18.34 26.32 18 27 C17.34 27 16.68 27 16 27 C15.896875 26.360625 15.79375 25.72125 15.6875 25.0625 C15.460625 24.381875 15.23375 23.70125 15 23 C14.01 22.67 13.02 22.34 12 22 C11.29618843 20.01276732 10.6288189 18.01222047 10 16 C9.34 15.67 8.68 15.34 8 15 C8 14.34 8 13.68 8 13 C7.01 12.67 6.02 12.34 5 12 C4.67 11.01 4.34 10.02 4 9 C3.01 9 2.02 9 1 9 C0.67 8.34 0.34 7.68 0 7 C-0.66 6.67 -1.32 6.34 -2 6 C-1.34 4.02 -0.68 2.04 0 0 Z " fill="#91EDF0" transform="translate(315,215)"/>
<path d="M0 0 C0.66 0.33 1.32 0.66 2 1 C1.9129995 2.62600941 1.8048219 4.25089678 1.6875 5.875 C1.62949219 6.77992188 1.57148438 7.68484375 1.51171875 8.6171875 C1 11 1 11 -2 13 C-1.67 14.32 -1.34 15.64 -1 17 C-1.9075 17.556875 -2.815 18.11375 -3.75 18.6875 C-6.84453391 20.8893799 -8.79281468 22.94389725 -11 26 C-11 25.34 -11 24.68 -11 24 C-11.66 23.67 -12.32 23.34 -13 23 C-8.71 15.41 -4.42 7.82 0 0 Z " fill="#6ADBDF" transform="translate(302,198)"/>
<path d="M0 0 C1.65 0.33 3.3 0.66 5 1 C5.28875 1.969375 5.5775 2.93875 5.875 3.9375 C6.64214682 7.10664203 6.64214682 7.10664203 9 8 C9 9.65 9 11.3 9 13 C6.625 13.125 6.625 13.125 4 13 C3.34 12.34 2.68 11.68 2 11 C1.01 11 0.02 11 -1 11 C-2.33981486 10.6937566 -3.67511887 10.36548445 -5 10 C-5 9.34 -5 8.68 -5 8 C-4.34 8 -3.68 8 -3 8 C-2.67 7.01 -2.34 6.02 -2 5 C-1.01 5 -0.02 5 1 5 C0.34 4.67 -0.32 4.34 -1 4 C-0.67 2.68 -0.34 1.36 0 0 Z " fill="#73F4F9" transform="translate(358,291)"/>
<path d="M0 0 C2.71455306 2.43908259 4.34563164 5.08724242 6.13671875 8.25390625 C6.71357422 9.27291016 7.29042969 10.29191406 7.88476562 11.34179688 C8.47966797 12.40462891 9.07457031 13.46746094 9.6875 14.5625 C10.59725586 16.16254883 10.59725586 16.16254883 11.52539062 17.79492188 C16 25.74251265 16 25.74251265 16 28 C14.68 27.67 13.36 27.34 12 27 C12 26.34 12 25.68 12 25 C11.34 25 10.68 25 10 25 C9.75765625 24.30132812 9.5153125 23.60265625 9.265625 22.8828125 C8.93046875 21.97273438 8.5953125 21.06265625 8.25 20.125 C7.92515625 19.22007812 7.6003125 18.31515625 7.265625 17.3828125 C5.78298212 14.59141695 4.74002132 14.34791372 2 13 C1.171875 10.9765625 1.171875 10.9765625 0.75 8.625 C0.60046875 7.85414063 0.4509375 7.08328125 0.296875 6.2890625 C0 4 0 4 0 0 Z " fill="#79D3D6" transform="translate(265,312)"/>
<path d="M0 0 C1.95703125 2.65234375 1.95703125 2.65234375 3.8125 5.9375 C4.43769531 7.01902344 5.06289062 8.10054688 5.70703125 9.21484375 C6.13371094 10.13394531 6.56039062 11.05304688 7 12 C6.67 12.66 6.34 13.32 6 14 C5.01 14 4.02 14 3 14 C-0.35665609 10.63364259 -2.56629155 6.7707929 -3 2 C-5.31 3.32 -7.62 4.64 -10 6 C-8.54794521 1.40182648 -8.54794521 1.40182648 -6.125 -0.375 C-3.47825119 -1.15345553 -2.53873849 -1.09745096 0 0 Z " fill="#7FD0D3" transform="translate(144,291)"/>
<path d="M0 0 C2 3 2 3 2 5 C1.01 5.33 0.02 5.66 -1 6 C-1.33 6.66 -1.66 7.32 -2 8 C-2.33 8.33 -2.66 8.66 -3 9 C-2.67 9.99 -2.34 10.98 -2 12 C-2.45375 12.4125 -2.9075 12.825 -3.375 13.25 C-5.0914384 14.93416435 -5.0914384 14.93416435 -6.0625 17.125 C-7 19 -7 19 -9 20 C-9.2236068 22.9254644 -9.2236068 22.9254644 -8 25 C-9.65 25.66 -11.3 26.32 -13 27 C-13.7265625 25.38671875 -13.7265625 25.38671875 -14 23 C-12.5234375 20.08203125 -12.5234375 20.08203125 -10.375 16.8125 C-7.37280043 12.16300029 -4.53412101 7.48372309 -1.91015625 2.609375 C-1 1 -1 1 0 0 Z " fill="#5CC8CE" transform="translate(357,291)"/>
<path d="M0 0 C0.66 0.99 1.32 1.98 2 3 C1.34 3.66 0.68 4.32 0 5 C-0.68020388 7.39291725 -0.68020388 7.39291725 -1.125 10.0625 C-1.29257812 10.96097656 -1.46015625 11.85945313 -1.6328125 12.78515625 C-2.02725875 14.79024336 -2.02725875 14.79024336 -2 16 C0.64 16.66 3.28 17.32 6 18 C6 18.33 6 18.66 6 19 C4.02090602 19.02686553 2.04171029 19.04633375 0.0625 19.0625 C-1.03964844 19.07410156 -2.14179688 19.08570313 -3.27734375 19.09765625 C-6 19 -6 19 -7 18 C-7.62234348 12.64784605 -6.10744055 10.26163275 -3 6 C-1.97069953 4.01492052 -0.96136071 2.01885749 0 0 Z " fill="#38C2C8" transform="translate(322,351)"/>
<path d="M0 0 C2.0625 0.4375 2.0625 0.4375 4 1 C3.01 1.33 2.02 1.66 1 2 C-0.18324135 4.34969016 -0.18324135 4.34969016 -1.0625 7.1875 C-1.40667969 8.18007812 -1.75085938 9.17265625 -2.10546875 10.1953125 C-2.77482382 12.29398911 -3.34956949 14.42324721 -3.875 16.5625 C-5 19 -5 19 -8.125 20.375 C-9.07375 20.58125 -10.0225 20.7875 -11 21 C-9.56781426 16.11857111 -7.49519668 12.0387872 -4.9375 7.6875 C-4.57333984 7.05521484 -4.20917969 6.42292969 -3.83398438 5.77148438 C-1.16003667 1.16003667 -1.16003667 1.16003667 0 0 Z " fill="#6DDBE0" transform="translate(192,197)"/>
<path d="M0 0 C0.66 0.99 1.32 1.98 2 3 C1.125 6.0625 1.125 6.0625 0 9 C0 9.66 0 10.32 0 11 C-0.99 11.495 -0.99 11.495 -2 12 C-1.67 12.66 -1.34 13.32 -1 14 C-1.33 14.99 -1.66 15.98 -2 17 C-3.65 17.33 -5.3 17.66 -7 18 C-8.17482324 14.52545194 -8.06339535 14.1324858 -6.34765625 10.546875 C-5.59841315 9.27382478 -4.83617987 8.00834874 -4.0625 6.75 C-3.67642578 6.1003125 -3.29035156 5.450625 -2.89257812 4.78125 C-1.93941582 3.18087871 -0.97114076 1.5895258 0 0 Z " fill="#33C8D0" transform="translate(157,258)"/>
<path d="M0 0 C0.66 0.66 1.32 1.32 2 2 C1.69055374 5.91965259 0.35505415 7.95805506 -2 11 C-2.35169068 12.32860925 -2.68770276 13.66158328 -3 15 C-3.66 15.66 -4.32 16.32 -5 17 C-5.66 16.67 -6.32 16.34 -7 16 C-7 16.66 -7 17.32 -7 18 C-7.66 18 -8.32 18 -9 18 C-7.65072455 13.46152802 -5.80840652 9.68067754 -3.375 5.625 C-2.74335937 4.56539063 -2.11171875 3.50578125 -1.4609375 2.4140625 C-0.73777344 1.21910156 -0.73777344 1.21910156 0 0 Z " fill="#58C5C8" transform="translate(130,303)"/>
<path d="M0 0 C1.65 0 3.3 0 5 0 C5.33 2.97 5.66 5.94 6 9 C4.35 9.33 2.7 9.66 1 10 C1 8.68 1 7.36 1 6 C-0.32 6.99 -1.64 7.98 -3 9 C-2.44271087 5.65626525 -1.64826111 2.96687001 0 0 Z " fill="#7CF7F8" transform="translate(193,198)"/>
<path d="M0 0 C0.99 0.33 1.98 0.66 3 1 C1.3833652 7.03280791 -0.16709462 10.950809 -5 15 C-5.66 14.67 -6.32 14.34 -7 14 C-5.23570801 9.02790438 -2.6060834 4.56561939 0 0 Z " fill="#3FCED6" transform="translate(212,351)"/>
<path d="M0 0 C0.33 0.66 0.66 1.32 1 2 C1.66 2 2.32 2 3 2 C3.96189997 3.72718516 4.91936508 5.45684058 5.875 7.1875 C6.40867187 8.15042969 6.94234375 9.11335938 7.4921875 10.10546875 C8.8423678 12.69739518 9.97098329 15.26761098 11 18 C5.40162272 15.56592292 5.40162272 15.56592292 3.625 13.0625 C3 11 3 11 3 7 C2.34 6.67 1.68 6.34 1 6 C0.375 2.9375 0.375 2.9375 0 0 Z " fill="#86D2D4" transform="translate(253,106)"/>
<path d="M0 0 C1.65 0.33 3.3 0.66 5 1 C4.01 1.495 4.01 1.495 3 2 C3 2.66 3 3.32 3 4 C1.35 4.33 -0.3 4.66 -2 5 C-2 6.65 -2 8.3 -2 10 C-2.99 10.33 -3.98 10.66 -5 11 C-4.67 11.99 -4.34 12.98 -4 14 C-4.99 14.495 -4.99 14.495 -6 15 C-6.66 14.67 -7.32 14.34 -8 14 C-6.6744419 10.37723685 -5.05653045 7.36494652 -2.875 4.1875 C-2.33617187 3.39730469 -1.79734375 2.60710937 -1.2421875 1.79296875 C-0.83226562 1.20128906 -0.42234375 0.60960938 0 0 Z " fill="#72C6CA" transform="translate(248,104)"/>
<path d="M0 0 C3.32366742 3.05099404 5.54224226 6.23449516 7.8125 10.125 C8.43769531 11.17945313 9.06289063 12.23390625 9.70703125 13.3203125 C10.13371094 14.20460937 10.56039063 15.08890625 11 16 C10.67 16.66 10.34 17.32 10 18 C9.34 18 8.68 18 8 18 C7.896875 17.360625 7.79375 16.72125 7.6875 16.0625 C7.460625 15.381875 7.23375 14.70125 7 14 C6.01 13.67 5.02 13.34 4 13 C2.83203125 10.56640625 2.83203125 10.56640625 1.8125 7.5625 C1.46832031 6.57378906 1.12414062 5.58507812 0.76953125 4.56640625 C0 2 0 2 0 0 Z " fill="#76C5C9" transform="translate(323,224)"/>
<path d="M0 0 C2.86191302 1.43095651 3.46054572 3.43890126 4.9375 6.25 C6.4691407 9.14875734 7.98315371 11.9737363 9.75390625 14.734375 C10.37072266 15.85585938 10.37072266 15.85585938 11 17 C10.67 17.66 10.34 18.32 10 19 C8.09765625 18.80078125 8.09765625 18.80078125 6 18 C5.05859375 15.85546875 5.05859375 15.85546875 4.4375 13.1875 C3.74178462 10.26203844 3.25015315 8.32636689 1.41015625 5.92578125 C0 4 0 4 0 0 Z " fill="#56C2C7" transform="translate(390,339)"/>
<path d="M0 0 C0.66 0.33 1.32 0.66 2 1 C2 1.99 2 2.98 2 4 C1.38125 4.103125 0.7625 4.20625 0.125 4.3125 C-2.36526484 4.87525373 -2.36526484 4.87525373 -4 8 C-4.144375 8.66 -4.28875 9.32 -4.4375 10 C-5.11043159 12.39264564 -6.14905806 13.39048527 -8 15 C-8.95600651 11.95816109 -9.20278208 10.4771343 -7.9375 7.5 C-5.57477876 4.45132744 -3.04245289 2.36635225 0 0 Z " fill="#6CE1E3" transform="translate(140,292)"/>
<path d="M0 0 C0.99 0.495 0.99 0.495 2 1 C2 1.99 2 2.98 2 4 C2.66 4 3.32 4 4 4 C4.8638129 5.45264038 5.71580454 6.9123163 6.5625 8.375 C7.27599609 9.59316406 7.27599609 9.59316406 8.00390625 10.8359375 C8.49697266 11.90714844 8.49697266 11.90714844 9 13 C8.67 13.66 8.34 14.32 8 15 C5.69 14.34 3.38 13.68 1 13 C1.20625 12.154375 1.4125 11.30875 1.625 10.4375 C2.05843012 6.46439054 1.2762763 3.75375382 0 0 Z " fill="#4CC7CD" transform="translate(224,246)"/>
<path d="M0 0 C4.40184756 1.20050388 7.1339154 2.39085643 10 6 C10.75 8.25 10.75 8.25 11 10 C8.05397944 9.36870988 5.68400182 8.34200091 3 7 C1.6757713 6.63215869 0.34386088 6.28797019 -1 6 C0.32 5.34 1.64 4.68 3 4 C3 3.34 3 2.68 3 2 C2.01 1.67 1.02 1.34 0 1 C0 0.67 0 0.34 0 0 Z " fill="#86D4D4" transform="translate(257,121)"/>
<path d="M0 0 C2.22189824 2.22189824 2.92598892 4.08482708 4 7 C1.36 8.65 -1.28 10.3 -4 12 C-5 9 -5 9 -4.00390625 6.73828125 C-3.52824219 5.93777344 -3.05257812 5.13726562 -2.5625 4.3125 C-2.08941406 3.50425781 -1.61632812 2.69601562 -1.12890625 1.86328125 C-0.75636719 1.24839844 -0.38382813 0.63351562 0 0 Z " fill="#5FD1D6" transform="translate(244,295)"/>
<path d="M0 0 C1.29441197 3.59094935 0.71538408 5.63082775 -0.6875 9.125 C-1.02136719 9.99382812 -1.35523438 10.86265625 -1.69921875 11.7578125 C-3.17930806 14.30907756 -4.27964127 14.98058136 -7 16 C-6.66830805 9.69785303 -3.32676012 5.14783064 0 0 Z " fill="#4BD7DD" transform="translate(332,334)"/>
<path d="M0 0 C3 1 3 1 4.6875 3.1875 C6.18125747 6.38840887 6.31749464 8.507559 6 12 C5 13 5 13 1.9375 13.0625 C0.968125 13.041875 -0.00125 13.02125 -1 13 C0.32 12.67 1.64 12.34 3 12 C3 10.35 3 8.7 3 7 C2.34 7 1.68 7 1 7 C0.67 4.69 0.34 2.38 0 0 Z " fill="#43C3C8" transform="translate(345,264)"/>
<path d="M0 0 C1.485 0.99 1.485 0.99 3 2 C3 2.66 3 3.32 3 4 C3.66 4 4.32 4 5 4 C5.66 3.01 6.32 2.02 7 1 C7 3.64 7 6.28 7 9 C4.69 8.67 2.38 8.34 0 8 C-0.38063221 5.6739143 -0.71269945 3.33944736 -1 1 C-0.67 0.67 -0.34 0.34 0 0 Z " fill="#2EE6F3" transform="translate(178,361)"/>
<path d="M0 0 C0.66 1.32 1.32 2.64 2 4 C1.3503125 4.5878125 1.3503125 4.5878125 0.6875 5.1875 C-2.76135275 8.89182332 -4.79544388 13.48590889 -7 18 C-7.99 18 -8.98 18 -10 18 C-6.72591106 11.96476272 -3.43506486 5.94530457 0 0 Z " fill="#4EB9C2" transform="translate(223,332)"/>
<path d="M0 0 C0.33 0 0.66 0 1 0 C0.67 2.31 0.34 4.62 0 7 C-0.99 7.33 -1.98 7.66 -3 8 C-3.12375 8.969375 -3.2475 9.93875 -3.375 10.9375 C-3.58125 11.948125 -3.7875 12.95875 -4 14 C-4.99 14.495 -4.99 14.495 -6 15 C-6.33 15.99 -6.66 16.98 -7 18 C-7.99 18.33 -8.98 18.66 -10 19 C-8.40376856 14.60616294 -6.21975667 10.71004193 -3.875 6.6875 C-3.50246094 6.04232422 -3.12992187 5.39714844 -2.74609375 4.73242188 C-1.83367787 3.15324055 -0.91724491 1.57638136 0 0 Z " fill="#43ACB0" transform="translate(279,239)"/>
<path d="M0 0 C0.66 0.33 1.32 0.66 2 1 C1.67 4.3 1.34 7.6 1 11 C-0.98 11.66 -2.96 12.32 -5 13 C-4.48474397 7.71862571 -2.74522883 4.42778844 0 0 Z " fill="#6AC9CD" transform="translate(302,198)"/>
<path d="M0 0 C5.27293578 6.95068807 5.27293578 6.95068807 5 12 C1.67631776 10.89210592 1.38436907 10.51563783 -0.25 7.625 C-0.60578125 7.01914062 -0.9615625 6.41328125 -1.328125 5.7890625 C-2 4 -2 4 -1 1 C-0.67 0.67 -0.34 0.34 0 0 Z " fill="#85DEE0" transform="translate(260,303)"/>
<path d="M0 0 C2 0 2 0 4.5 2.1875 C6.8395003 4.81943784 7.95802858 6.6846364 9 10 C8.34 10.66 7.68 11.32 7 12 C3 7.25 3 7.25 3 5 C2.34 5 1.68 5 1 5 C0.67 3.35 0.34 1.7 0 0 Z " fill="#68E2E5" transform="translate(328,238)"/>
<path d="M0 0 C3.65392651 1.2179755 3.95831699 2.14396506 5.75 5.4375 C6.19859375 6.24058594 6.6471875 7.04367188 7.109375 7.87109375 C7.40328125 8.57363281 7.6971875 9.27617187 8 10 C7.67 10.66 7.34 11.32 7 12 C5.68 11.67 4.36 11.34 3 11 C3 9.68 3 8.36 3 7 C2.34 6.67 1.68 6.34 1 6 C0.375 2.9375 0.375 2.9375 0 0 Z " fill="#82C8CA" transform="translate(313,208)"/>
<path d="M0 0 C2.43986543 2.25273711 4.13659937 4.5734969 5.8125 7.4375 C6.27269531 8.19933594 6.73289063 8.96117187 7.20703125 9.74609375 C8 12 8 12 7.13671875 14.28515625 C6.57404297 15.13400391 6.57404297 15.13400391 6 16 C5.62875 14.9790625 5.62875 14.9790625 5.25 13.9375 C4.24801178 11.58282768 3.19399735 9.60776514 1.875 7.4375 C0 4 0 4 0 0 Z " fill="#60BABE" transform="translate(168,335)"/>
<path d="M0 0 C4.11583349 3.50608038 6.90567018 8.04628837 9 13 C8.67 13.66 8.34 14.32 8 15 C3.79205414 11.24696721 1.83657832 8.21974892 0 3 C0 2.01 0 1.02 0 0 Z " fill="#76C3C7" transform="translate(209,220)"/>
<path d="M0 0 C2.60045875 2.3024119 3.84739183 4.49896677 5.1875 7.6875 C5.53167969 8.49574219 5.87585938 9.30398438 6.23046875 10.13671875 C6.48441406 10.75160156 6.73835937 11.36648438 7 12 C6.01 12.33 5.02 12.66 4 13 C4 12.01 4 11.02 4 10 C3.34 10 2.68 10 2 10 C1.46987262 8.71211992 0.9511671 7.41953322 0.4375 6.125 C0.14746094 5.40570313 -0.14257812 4.68640625 -0.44140625 3.9453125 C-1 2 -1 2 0 0 Z " fill="#7ACBCC" transform="translate(159,319)"/>
<path d="M0 0 C0.33 0 0.66 0 1 0 C1.125 6.75 1.125 6.75 0 9 C-0.99 9 -1.98 9 -3 9 C-3.33 10.32 -3.66 11.64 -4 13 C-5.0169313 10.34501768 -5.13022151 9.30844625 -4.00390625 6.640625 C-3.52824219 5.85171875 -3.05257812 5.0628125 -2.5625 4.25 C-2.08941406 3.45078125 -1.61632812 2.6515625 -1.12890625 1.828125 C-0.75636719 1.22484375 -0.38382812 0.6215625 0 0 Z " fill="#33A8AF" transform="translate(100,356)"/>
<path d="M0 0 C1.25009054 2.50018108 0.86733449 3.33935278 0.1875 6 C0.01605469 6.70125 -0.15539062 7.4025 -0.33203125 8.125 C-1 10 -1 10 -3 12 C-3.99 12 -4.98 12 -6 12 C-4.43358249 7.69235185 -2.31663844 3.93828536 0 0 Z " fill="#4FC2C7" transform="translate(234,313)"/>
<path d="M0 0 C1.65 0.33 3.3 0.66 5 1 C5.28875 1.969375 5.5775 2.93875 5.875 3.9375 C6.64214682 7.10664203 6.64214682 7.10664203 9 8 C8.67 8.99 8.34 9.98 8 11 C8 10.34 8 9.68 8 9 C7.01 9.33 6.02 9.66 5 10 C4.67 8.35 4.34 6.7 4 5 C2.35 4.67 0.7 4.34 -1 4 C-0.67 2.68 -0.34 1.36 0 0 Z " fill="#88F4F5" transform="translate(358,291)"/>
<path d="M0 0 C0.66 0.99 1.32 1.98 2 3 C1.125 6.0625 1.125 6.0625 0 9 C0 9.66 0 10.32 0 11 C-0.99 11.33 -1.98 11.66 -3 12 C-3.94721072 9.39517051 -4.30222393 7.69325299 -3.17578125 5.109375 C-2.17063275 3.37417127 -1.0893855 1.68359577 0 0 Z " fill="#3FCDD4" transform="translate(157,258)"/>
<path d="M0 0 C2.74277578 3.19990508 4.6302836 6.00499382 6 10 C4.35 10 2.7 10 1 10 C0.34 8.68 -0.32 7.36 -1 6 C-0.34 6 0.32 6 1 6 C0.67 4.02 0.34 2.04 0 0 Z " fill="#61D2D6" transform="translate(218,235)"/>
<path d="M0 0 C4.42679007 1.47559669 4.91432696 3.90057368 7 8 C7 8.66 7 9.32 7 10 C5.68 9.67 4.36 9.34 3 9 C3 8.34 3 7.68 3 7 C2.34 7 1.68 7 1 7 C0.67 4.69 0.34 2.38 0 0 Z " fill="#79D7DB" transform="translate(274,330)"/>
<path d="M0 0 C0.33 0 0.66 0 1 0 C0.97679687 0.62648438 0.95359375 1.25296875 0.9296875 1.8984375 C0.91164063 2.71570313 0.89359375 3.53296875 0.875 4.375 C0.84019531 5.59316406 0.84019531 5.59316406 0.8046875 6.8359375 C0.78629949 9.21342243 0.78629949 9.21342243 3 11 C1.02 11 -0.96 11 -3 11 C-3.32434322 6.35108046 -2.776422 3.77593392 0 0 Z " fill="#3CBEC5" transform="translate(264,265)"/>
<path d="M0 0 C1.7074998 1.28062485 3.37373596 2.61767557 5 4 C5 4.66 5 5.32 5 6 C5.99 6.33 6.98 6.66 8 7 C8.33 8.98 8.66 10.96 9 13 C8.01 12.34 7.02 11.68 6 11 C6 10.01 6 9.02 6 8 C5.34 8 4.68 8 4 8 C4 7.34 4 6.68 4 6 C3.34 6 2.68 6 2 6 C0 3 0 3 0 0 Z " fill="#70F1F4" transform="translate(210,228)"/>
<path d="M0 0 C0.66 0.99 1.32 1.98 2 3 C1.01 4.98 0.02 6.96 -1 9 C-1.99 9 -2.98 9 -4 9 C-4 9.99 -4 10.98 -4 12 C-4.66 12 -5.32 12 -6 12 C-4.68139111 7.38486888 -2.78644563 3.90102388 0 0 Z " fill="#47BDC1" transform="translate(120,321)"/>
<path d="M0 0 C0.66 1.32 1.32 2.64 2 4 C1.01 5.32 0.02 6.64 -1 8 C-1.66 7.67 -2.32 7.34 -3 7 C-3 7.66 -3 8.32 -3 9 C-3.66 9 -4.32 9 -5 9 C-3.90931332 5.22454612 -3.0916909 2.52956528 0 0 Z " fill="#5DCED4" transform="translate(126,312)"/>
<path d="M0 0 C2.29296875 0.16015625 2.29296875 0.16015625 5 1 C6.80078125 3.43359375 6.80078125 3.43359375 8.3125 6.4375 C8.82425781 7.42621094 9.33601563 8.41492188 9.86328125 9.43359375 C11 12 11 12 11 14 C10.01 14 9.02 14 8 14 C8 12.35 8 10.7 8 9 C7.01 8.67 6.02 8.34 5 8 C4.67 6.02 4.34 4.04 4 2 C2.68 1.67 1.36 1.34 0 1 C0 0.67 0 0.34 0 0 Z " fill="#7BB6BC" transform="translate(359,290)"/>
<path d="M0 0 C3.29078593 2.79716804 5.06305458 6.19528578 7 10 C6.67 10.66 6.34 11.32 6 12 C5.34 12 4.68 12 4 12 C3.32332002 10.75539217 2.65905281 9.50403104 2 8.25 C1.62875 7.55390625 1.2575 6.8578125 0.875 6.140625 C0 4 0 4 0 0 Z " fill="#76B1B5" transform="translate(265,312)"/>
<path d="M0 0 C1.26026798 2.52053595 0.91874445 3.8542098 0.5625 6.625 C0.40974609 7.85089844 0.40974609 7.85089844 0.25390625 9.1015625 C0.17011719 9.72804687 0.08632812 10.35453125 0 11 C0.66 11.33 1.32 11.66 2 12 C0.35 11.67 -1.3 11.34 -3 11 C-3.32613618 6.32538149 -2.70582788 3.83325617 0 0 Z " fill="#45B2B9" transform="translate(208,172)"/>
<path d="M0 0 C3.29078593 2.79716804 5.06305458 6.19528578 7 10 C6 12 6 12 4 13 C3.32404685 11.58774074 2.65959941 10.16997095 2 8.75 C1.62875 7.96109375 1.2575 7.1721875 0.875 6.359375 C0 4 0 4 0 0 Z " fill="#4EBBBF" transform="translate(176,349)"/>
<path d="M0 0 C2.61885488 2.36944013 4.41866551 4.83733102 6 8 C5.67 8.99 5.34 9.98 5 11 C4.67 10.34 4.34 9.68 4 9 C3.01 8.67 2.02 8.34 1 8 C-0.07009208 5.17884816 0 3.09455459 0 0 Z " fill="#60C9CD" transform="translate(282,342)"/>
<path d="M0 0 C3 2 3 2 3.73046875 4.3828125 C3.88128906 5.28773438 4.03210938 6.19265625 4.1875 7.125 C4.34605469 8.03507812 4.50460938 8.94515625 4.66796875 9.8828125 C4.83232422 10.93082031 4.83232422 10.93082031 5 12 C2.368276 9.54372427 0.18472737 7.44647963 -1 4 C-0.625 1.75 -0.625 1.75 0 0 Z " fill="#70EAED" transform="translate(165,331)"/>
<path d="M0 0 C3.76607955 1.25535985 4.26441793 2.52883585 6 6 C6 9 6 9 5 11 C5.66 11.33 6.32 11.66 7 12 C6.01 12.33 5.02 12.66 4 13 C3.51891725 11.58398286 3.04021859 10.16715563 2.5625 8.75 C2.29566406 7.96109375 2.02882813 7.1721875 1.75390625 6.359375 C1.08045292 4.25178012 0.50849405 2.15246027 0 0 Z " fill="#63F1F3" transform="translate(376,321)"/>
<path d="M0 0 C2.55028983 1.27514492 2.93081711 2.40341297 4 5 C4 5.99 4 6.98 4 8 C4.66 8 5.32 8 6 8 C6.66 9.98 7.32 11.96 8 14 C4.35448664 12.78482888 3.63254175 11.21192827 1.8515625 7.921875 C0.70269136 5.32900986 0.27417943 2.81033919 0 0 Z " fill="#77B6B9" transform="translate(151,305)"/>
<path d="M0 0 C0.66 0 1.32 0 2 0 C2 1.32 2 2.64 2 4 C2.66 4 3.32 4 4 4 C3.67 4.99 3.34 5.98 3 7 C1.35 7 -0.3 7 -2 7 C-1.125 1.125 -1.125 1.125 0 0 Z " fill="#30E6F4" transform="translate(266,268)"/>
<path d="M0 0 C3.08943092 2.52771621 4.11644276 5.1444775 5 9 C4.01 10.485 4.01 10.485 3 12 C-0.42857143 4.71428571 -0.42857143 4.71428571 0 0 Z " fill="#77C6CA" transform="translate(198,200)"/>
<path d="M0 0 C1.43088528 2.86177057 0.59991697 4.93375773 0 8 C-1.32 8.33 -2.64 8.66 -4 9 C-4.33 10.32 -4.66 11.64 -5 13 C-6 10 -6 10 -4.78515625 7.51953125 C-4.21667969 6.62621094 -3.64820313 5.73289063 -3.0625 4.8125 C-2.49660156 3.91144531 -1.93070313 3.01039063 -1.34765625 2.08203125 C-0.90292969 1.39496094 -0.45820313 0.70789063 0 0 Z " fill="#54C1C9" transform="translate(221,150)"/>
<path d="M0 0 C0.33 0.99 0.66 1.98 1 3 C4.96 3 8.92 3 13 3 C13 3.33 13 3.66 13 4 C7.06 4 1.12 4 -5 4 C-3.35 2.68 -1.7 1.36 0 0 Z " fill="#13E3EC" transform="translate(220,365)"/>
<path d="M0 0 C2 1 2 1 2.8125 3.375 C3 6 3 6 1.5625 7.8125 C1.046875 8.204375 0.53125 8.59625 0 9 C-0.66 8.34 -1.32 7.68 -2 7 C-2 3.89448334 -1.4606285 2.64738916 0 0 Z " fill="#39C0CB" transform="translate(268,258)"/>
<path d="M0 0 C0.33 0.66 0.66 1.32 1 2 C1.99 2.33 2.98 2.66 4 3 C4 3.99 4 4.98 4 6 C1.69 6.66 -0.62 7.32 -3 8 C-2.690625 7.236875 -2.38125 6.47375 -2.0625 5.6875 C-1.32106407 3.81210323 -0.63771783 1.91315348 0 0 Z " fill="#50CFD5" transform="translate(283,231)"/>
<path d="M0 0 C4.42857143 5.14285714 4.42857143 5.14285714 5 9 C3.68 9 2.36 9 1 9 C0.67 8.34 0.34 7.68 0 7 C-0.66 6.67 -1.32 6.34 -2 6 C-1.34 4.02 -0.68 2.04 0 0 Z " fill="#74F7F8" transform="translate(315,215)"/>
<path d="M0 0 C2.31 1.98 4.62 3.96 7 6 C6.67 7.32 6.34 8.64 6 10 C4.125 9.5 4.125 9.5 2 8 C1.01505446 5.34822355 0.54087618 2.79452693 0 0 Z " fill="#49E5EC" transform="translate(177,356)"/>
<path d="M0 0 C-0.33 0.66 -0.66 1.32 -1 2 C-2.33333333 2.33333333 -3.66666667 2.66666667 -5 3 C-6.68991979 3.9601817 -8.36209288 4.95355934 -10 6 C-8.54794521 1.40182648 -8.54794521 1.40182648 -6.125 -0.375 C-3.6665651 -1.09806909 -2.38500154 -0.85178626 0 0 Z " fill="#62A7A8" transform="translate(144,291)"/>
<path d="M0 0 C0.99 0.33 1.98 0.66 3 1 C2.34 2.32 1.68 3.64 1 5 C0.34 5 -0.32 5 -1 5 C-1 5.99 -1 6.98 -1 8 C-1.66 8 -2.32 8 -3 8 C-3.36923077 3.44615385 -3.36923077 3.44615385 -1.5 1.1875 C-1.005 0.795625 -0.51 0.40375 0 0 Z " fill="#5FEAEF" transform="translate(173,232)"/>
<path d="M0 0 C2.61500768 2.36595933 4.38999603 4.86049226 6 8 C5.67 8.66 5.34 9.32 5 10 C4.01 10 3.02 10 2 10 C0.68373308 6.38026598 0 3.90432869 0 0 Z " fill="#74C0C5" transform="translate(203,209)"/>
<path d="M0 0 C0.66 0 1.32 0 2 0 C2.33 1.65 2.66 3.3 3 5 C2.236875 4.95875 1.47375 4.9175 0.6875 4.875 C-2.22718416 4.77919176 -2.22718416 4.77919176 -5 7 C-5 5.68 -5 4.36 -5 3 C-3.35 2.67 -1.7 2.34 0 2 C0 1.34 0 0.68 0 0 Z " fill="#91F9FA" transform="translate(251,106)"/>
<path d="M0 0 C2.0245738 1.93254772 3.42105792 3.63158688 5 6 C4.67 6.99 4.34 7.98 4 9 C2.35 7.68 0.7 6.36 -1 5 C-0.67 3.35 -0.34 1.7 0 0 Z " fill="#69EEF4" transform="translate(156,319)"/>
<path d="M0 0 C0.66 0.66 1.32 1.32 2 2 C4.10820797 1.6814823 4.10820797 1.6814823 6 1 C6 1.99 6 2.98 6 4 C3.36 4.66 0.72 5.32 -2 6 C-1.125 1.125 -1.125 1.125 0 0 Z " fill="#64EBF1" transform="translate(344,315)"/>
<path d="M0 0 C0.66 0 1.32 0 2 0 C1.67 1.32 1.34 2.64 1 4 C0.34 4 -0.32 4 -1 4 C-1.33 4.99 -1.66 5.98 -2 7 C-2.99 7.66 -3.98 8.32 -5 9 C-5 7.02 -5 5.04 -5 3 C-4.01 3 -3.02 3 -2 3 C-1.34 2.01 -0.68 1.02 0 0 Z " fill="#6DF1F8" transform="translate(294,219)"/>
<path d="M0 0 C2.3125 0.125 2.3125 0.125 5 1 C6.8125 4.0625 6.8125 4.0625 8 7 C7.01 7 6.02 7 5 7 C0 1.53488372 0 1.53488372 0 0 Z " fill="#77B3B9" transform="translate(304,197)"/>
<path d="M0 0 C0.66 0.66 1.32 1.32 2 2 C1.649375 2.598125 1.29875 3.19625 0.9375 3.8125 C-0.33304698 6.10813214 -0.33304698 6.10813214 1 9 C-0.32 9 -1.64 9 -3 9 C-2.67 6.69 -2.34 4.38 -2 2 C-1.34 2 -0.68 2 0 2 C0 1.34 0 0.68 0 0 Z " fill="#62F1F7" transform="translate(237,311)"/>
<path d="M0 0 C2.02045442 0.60183749 4.02111039 1.27306096 6 2 C6.33 2.66 6.66 3.32 7 4 C6.67 4.66 6.34 5.32 6 6 C2.9375 6.625 2.9375 6.625 0 7 C-0.33 6.34 -0.66 5.68 -1 5 C0.32 4.67 1.64 4.34 3 4 C3 3.34 3 2.68 3 2 C2.01 1.67 1.02 1.34 0 1 C0 0.67 0 0.34 0 0 Z " fill="#87F7F8" transform="translate(257,121)"/>
<path d="M0 0 C1.65 0.33 3.3 0.66 5 1 C4.01 1.495 4.01 1.495 3 2 C3 2.66 3 3.32 3 4 C1.02 4.33 -0.96 4.66 -3 5 C-2.01 3.35 -1.02 1.7 0 0 Z " fill="#74BCC2" transform="translate(248,104)"/>
<path d="M0 0 C3 1 3 1 4.6875 3.9375 C6 7 6 7 6 9 C3 8 3 8 1.3125 5.625 C0 3 0 3 0 0 Z " fill="#79BEC2" transform="translate(380,323)"/>
<path d="M0 0 C0.66 0.33 1.32 0.66 2 1 C1.67 3.31 1.34 5.62 1 8 C-0.32 8 -1.64 8 -3 8 C-2.67 6.02 -2.34 4.04 -2 2 C-1.34 2 -0.68 2 0 2 C0 1.34 0 0.68 0 0 Z " fill="#5BECF3" transform="translate(123,319)"/>
<path d="M0 0 C1.5625 1.25 1.5625 1.25 3 3 C2.6875 5.1875 2.6875 5.1875 2 7 C0.68 6.67 -0.64 6.34 -2 6 C-2 4.68 -2 3.36 -2 2 C-1.34 2 -0.68 2 0 2 C0 1.34 0 0.68 0 0 Z " fill="#78D0D1" transform="translate(257,298)"/>
<path d="M0 0 C0.99 0.99 1.98 1.98 3 3 C2.34 4.32 1.68 5.64 1 7 C0.01 6.67 -0.98 6.34 -2 6 C-2 4.35 -2 2.7 -2 1 C-1.34 0.67 -0.68 0.34 0 0 Z " fill="#76F8FD" transform="translate(304,202)"/>
<path d="M0 0 C2.96865509 2.54456151 4.3619751 5.48994665 6 9 C4.35 8.67 2.7 8.34 1 8 C0.67 5.36 0.34 2.72 0 0 Z " fill="#4FB7BF" transform="translate(284,159)"/>
<path d="M0 0 C0.33 0 0.66 0 1 0 C1 2.64 1 5.28 1 8 C0.01 8 -0.98 8 -2 8 C-2 6.68 -2 5.36 -2 4 C-2.66 4 -3.32 4 -4 4 C-3.67 3.01 -3.34 2.02 -3 1 C-3 1.66 -3 2.32 -3 3 C-2.34 3 -1.68 3 -1 3 C-0.67 2.01 -0.34 1.02 0 0 Z " fill="#30B1B7" transform="translate(184,362)"/>
<path d="M0 0 C2.49505962 2.49505962 2.35948376 3.67328888 2.625 7.125 C2.69976562 8.03507813 2.77453125 8.94515625 2.8515625 9.8828125 C2.92503906 10.93082031 2.92503906 10.93082031 3 12 C-0.58050131 7.82744729 -0.26656798 5.33135955 0 0 Z " fill="#4FDCDF" transform="translate(291,171)"/>
<path d="M0 0 C0.598125 0.185625 1.19625 0.37125 1.8125 0.5625 C4.16408762 1.22093687 4.16408762 1.22093687 7 0 C6.67 1.32 6.34 2.64 6 4 C4.02 4 2.04 4 0 4 C0 2.68 0 1.36 0 0 Z " fill="#28DFEC" transform="translate(97,365)"/>
<path d="M0 0 C0.66 0.99 1.32 1.98 2 3 C1.34 3 0.68 3 0 3 C-0.12375 3.78375 -0.2475 4.5675 -0.375 5.375 C-1 8 -1 8 -3 10 C-4 7 -4 7 -3.22265625 5.17578125 C-2.1484375 3.45052083 -1.07421875 1.72526042 0 0 Z " fill="#49BABF" transform="translate(337,325)"/>
<path d="M0 0 C2 3 2 3 2 5 C1.01 5.33 0.02 5.66 -1 6 C-2.66710346 7.49985609 -2.66710346 7.49985609 -4 9 C-4 5.00095031 -2.27413033 3.19799578 0 0 Z " fill="#57AEB1" transform="translate(357,291)"/>
<path d="M0 0 C0.99 0.33 1.98 0.66 3 1 C2.67 2.65 2.34 4.3 2 6 C0.02 6 -1.96 6 -4 6 C-2.68 5.67 -1.36 5.34 0 5 C0 3.35 0 1.7 0 0 Z " fill="#4CD0D5" transform="translate(348,271)"/>
<path d="M0 0 C3.0916909 2.52956528 3.90931332 5.22454612 5 9 C2 8 2 8 0.8125 6.1875 C0 4 0 4 0 0 Z " fill="#74B8BB" transform="translate(268,131)"/>
<path d="M0 0 C0.33 1.32 0.66 2.64 1 4 C0.01 5.485 0.01 5.485 -1 7 C-1.66 7 -2.32 7 -3 7 C-3 7.99 -3 8.98 -3 10 C-3.66 9.67 -4.32 9.34 -5 9 C-3.35 6.03 -1.7 3.06 0 0 Z " fill="#3CA0A8" transform="translate(108,342)"/>
<path d="M0 0 C0.6875 1.6875 0.6875 1.6875 1 4 C-0.3125 6.75 -0.3125 6.75 -2 9 C-2.66 9 -3.32 9 -4 9 C-2.94124926 5.59687262 -1.99097846 2.98646769 0 0 Z " fill="#4CB9BD" transform="translate(332,334)"/>
<path d="M0 0 C0.33 1.32 0.66 2.64 1 4 C0.34 4 -0.32 4 -1 4 C-1.33 5.98 -1.66 7.96 -2 10 C-2.99 10 -3.98 10 -5 10 C-3.33333333 6.66666667 -1.66666667 3.33333333 0 0 Z " fill="#49BEC5" transform="translate(166,242)"/>
<path d="M0 0 C0.99 0 1.98 0 3 0 C4 6.625 4 6.625 4 10 C3.34 9.67 2.68 9.34 2 9 C1.3671875 6.93359375 1.3671875 6.93359375 0.875 4.4375 C0.70742188 3.61121094 0.53984375 2.78492188 0.3671875 1.93359375 C0.24601562 1.29550781 0.12484375 0.65742188 0 0 Z " fill="#83E0E3" transform="translate(310,204)"/>
<path d="M0 0 C2.125 0.375 2.125 0.375 4 1 C3.01 1.33 2.02 1.66 1 2 C0.67 2.825 0.34 3.65 0 4.5 C-0.33 5.325 -0.66 6.15 -1 7 C-1.99 7.33 -2.98 7.66 -4 8 C-2.25 2.25 -2.25 2.25 0 0 Z " fill="#438388" transform="translate(192,197)"/>
<path d="M0 0 C0.66 0.33 1.32 0.66 2 1 C1.67 2.98 1.34 4.96 1 7 C0.01 6.67 -0.98 6.34 -2 6 C-1.34 4.02 -0.68 2.04 0 0 Z " fill="#2FE1F1" transform="translate(102,357)"/>
<path d="M0 0 C2.4375 0.75 2.4375 0.75 5 2 C5.8125 4.125 5.8125 4.125 6 6 C3.5625 5.25 3.5625 5.25 1 4 C0.1875 1.875 0.1875 1.875 0 0 Z " fill="#7AD6D8" transform="translate(270,139)"/>
<path d="M0 0 C0.33 0 0.66 0 1 0 C1 2.31 1 4.62 1 7 C0.01 7 -0.98 7 -2 7 C-2 3.89448334 -1.4606285 2.64738916 0 0 Z " fill="#3AB8BE" transform="translate(208,358)"/>
<path d="M0 0 C0.66 0 1.32 0 2 0 C2 2.31 2 4.62 2 7 C1.01 7.495 1.01 7.495 0 8 C0 7.01 0 6.02 0 5 C-0.66 5 -1.32 5 -2 5 C-2 4.34 -2 3.68 -2 3 C-1.34 3 -0.68 3 0 3 C0 2.01 0 1.02 0 0 Z " fill="#55ECF4" transform="translate(116,330)"/>
<path d="M0 0 C0.33 0 0.66 0 1 0 C0.67 2.31 0.34 4.62 0 7 C-0.99 7.33 -1.98 7.66 -3 8 C-2.37240135 5.07120629 -1.41377341 2.63904371 0 0 Z " fill="#56CBD1" transform="translate(279,239)"/>
<path d="M0 0 C1.2065625 0.0309375 1.2065625 0.0309375 2.4375 0.0625 C2.4375 2.0425 2.4375 4.0225 2.4375 6.0625 C2.19 5.423125 1.9425 4.78375 1.6875 4.125 C0.62187567 1.87508459 0.62187567 1.87508459 -1.6875 1.3125 C-2.615625 1.18875 -2.615625 1.18875 -3.5625 1.0625 C-2.5625 0.0625 -2.5625 0.0625 0 0 Z " fill="#8DE1E2" transform="translate(195.5625,197.9375)"/>
<path d="M0 0 C2 1 2 1 3.125 4.0625 C3.41375 5.031875 3.7025 6.00125 4 7 C2.68 6.67 1.36 6.34 0 6 C0 4.02 0 2.04 0 0 Z " fill="#62C6CC" transform="translate(280,152)"/>
<path d="M0 0 C0.33 0 0.66 0 1 0 C1 1.98 1 3.96 1 6 C-0.98 6.99 -0.98 6.99 -3 8 C-1.125 2.25 -1.125 2.25 0 0 Z " fill="#53BCC0" transform="translate(225,142)"/>
</svg>
